# Blender v2.76 (sub 0) OBJ File: ''
# www.blender.org
mtllib FlatAxe.mtl
o Cube.001
v 3.649007 0.051822 -0.273117
v 3.549132 -0.104254 -0.254042
v 3.559194 -0.242899 -0.157946
v 3.531607 -0.285530 -0.000001
v 3.557772 -0.227654 0.155808
v 3.571480 -0.021849 0.261261
v 3.681543 0.116457 0.146789
v 3.839410 0.196034 0.271618
v 3.849246 0.356290 0.078040
v 3.900669 0.437068 -0.050545
v 3.849097 0.270076 -0.143435
v 3.750998 0.230181 -0.306289
v 2.692840 0.572625 -0.256920
v 2.711813 0.753218 -0.154322
v 2.711813 0.458244 0.308642
v 2.573430 0.209159 0.250265
v 2.711813 0.798850 -0.000000
v 2.711813 0.753218 0.154321
v 2.711813 0.163270 0.154321
v 2.711813 0.117637 -0.000000
v 2.574724 0.215039 -0.264325
v 2.701262 0.446781 -0.307043
v 2.698694 0.605721 0.266522
v 2.704509 0.160328 -0.154557
v 0.328307 0.606675 -0.229681
v 0.425171 0.444703 0.213231
v 0.328307 0.760347 -0.000000
v 0.328358 0.186849 0.132591
v 0.328307 0.299330 -0.229681
v 0.402910 0.574321 0.196681
v 0.328307 0.186834 -0.132606
v 0.328307 0.719171 -0.132606
v 0.423435 0.313121 0.182673
v 0.392141 0.681986 0.114055
v 0.328307 0.145658 -0.000000
v 0.328307 0.453002 -0.265213
v -3.872197 0.578126 -0.366532
v -3.872197 0.358241 -0.317426
v -3.680968 0.218688 -0.165535
v -3.562287 0.200113 -0.011987
v -3.563147 0.232893 0.155696
v -3.872197 0.358241 0.317426
v -3.872197 0.578126 0.366532
v -3.872197 0.798011 0.317426
v -3.872197 0.958979 0.183266
v -3.872197 1.017897 0.000000
v -3.872197 0.958979 -0.183266
v -3.872197 0.798012 -0.317426
v -3.953284 0.578126 -0.289513
v -3.915065 0.489202 -0.233100
v -3.947211 0.279506 -0.147506
v -3.884048 0.407519 -0.023132
v -3.747937 0.310105 0.093393
v -3.953284 0.404445 0.250726
v -3.953284 0.578126 0.289513
v -3.953284 0.751807 0.250726
v -3.953284 0.878951 0.144757
v -3.953284 0.925489 0.000000
v -3.953284 0.878951 -0.144756
v -3.953284 0.751807 -0.250725
v -0.599568 0.582905 -0.232503
v -0.619555 0.438914 0.231657
v -0.599555 0.741378 -0.000003
v -0.599568 0.149901 0.134236
v -0.599506 0.266004 -0.232388
v -0.612144 0.579283 0.215860
v -0.599568 0.149901 -0.134236
v -0.599568 0.698928 -0.134236
v -0.631667 0.288960 0.200170
v -0.593735 0.680987 0.120954
v -0.599568 0.107433 -0.000000
v -0.605353 0.442692 -0.251739
v 1.399603 0.703588 -0.126767
v 1.523731 0.310342 0.202654
v 1.508039 0.692205 0.125037
v 1.478994 0.171097 -0.003585
v 1.503981 0.448953 -0.249219
v 1.493152 0.594505 -0.214686
v 1.433241 0.452326 0.249567
v 1.399603 0.742023 -0.000000
v 1.515415 0.209102 0.115318
v 1.478595 0.315520 -0.219495
v 1.505801 0.586696 0.214293
v 1.400329 0.206627 -0.126788
v -2.728410 0.828126 0.360899
v -2.199362 0.738056 0.298381
v -2.728410 1.011139 0.208365
v -2.083421 0.771307 0.245673
v -3.867510 -0.024182 0.424316
v -3.018878 -0.024182 -0.424316
v -3.018878 -0.024182 0.424316
v -3.567052 1.409442 0.114026
v -3.567052 1.409442 -0.114026
v -3.189044 1.409442 -0.114026
v -3.189044 1.409442 0.114026
v -3.843858 -1.279555 0.117088
v -3.843858 -1.279555 -0.131724
v -2.514697 -1.061942 -0.065255
v -2.508102 -1.061942 0.064913
v -2.961847 1.220609 -0.346550
v -3.818209 -1.674621 -0.008222
v -2.387915 -1.229853 -0.008565
v -3.810480 1.220609 -0.346550
v -3.378048 1.437654 -0.114026
v -3.443194 -0.024182 -0.424316
v -3.378048 1.437654 0.114026
v -3.443194 -0.024182 0.424316
v -3.187424 -1.140504 -0.099077
v -3.009363 -1.057240 0.096131
v -3.020912 -1.502050 -0.008223
v -3.810480 1.220609 0.346550
v -2.916463 -0.559689 0.198542
v -3.866395 -0.648449 0.197792
v -3.866395 -0.648449 -0.197792
v -2.890049 -0.559689 -0.197301
v -3.348505 -0.597465 -0.197792
v -3.343158 -0.688806 0.208287
v -2.961847 1.220609 0.346550
v -3.386163 1.276055 0.346550
v -3.386163 1.276055 -0.346550
v -3.838995 1.018580 -0.424317
v -2.990362 1.018580 -0.424317
v -2.990362 1.018581 0.424316
v -3.838995 1.018581 0.424316
v -3.414679 1.046304 0.424316
v -3.414679 1.046303 -0.424317
v -3.010592 -0.265521 0.321894
v -3.866953 -0.336316 -0.320913
v -3.866953 -0.336315 0.320913
v -3.010592 -0.265521 -0.319931
v -3.395850 -0.310824 -0.320913
v -3.412274 -0.322383 0.318275
v -3.776456 1.343216 0.285094
v -3.382106 1.397968 0.285094
v -3.776456 1.343216 -0.285095
v -2.987755 1.343216 0.285094
v -2.987755 1.343216 -0.285095
v -3.382106 1.397968 -0.285095
v -2.719565 0.487438 -0.330420
v -1.624132 0.550610 -0.281199
v -2.696602 0.255775 -0.235931
v -1.617813 0.342977 -0.250547
v -2.726739 0.147696 -0.195251
v -1.616030 0.191733 -0.181514
v -2.728410 0.078126 0.000000
v -1.608564 0.116603 -0.057971
v -2.728410 0.145113 0.208365
v -1.633832 0.136058 0.089609
v -2.744788 0.373520 0.313811
v -1.651271 0.242181 0.214220
v -2.728410 0.578126 0.416731
v -1.641893 0.410423 0.285846
v -2.728410 0.828126 0.360899
v -1.621456 0.605418 0.263638
v -2.728410 1.011139 0.208365
v -1.645138 0.762544 0.171958
v -2.728410 1.078126 0.000000
v -1.489658 0.733462 0.000017
v -2.728410 1.011139 -0.208365
v -1.489619 0.688426 -0.140002
v -2.728410 0.828126 -0.360899
v -1.612757 0.709702 -0.229269
v 3.582589 0.188153 -0.394138
v 3.480402 -0.018227 -0.349396
v 3.410609 -0.181100 -0.208366
v 3.374217 -0.237339 -0.000001
v 3.410609 -0.181100 0.208365
v 3.510036 -0.027451 0.360899
v 3.444468 0.209329 0.348068
v 3.781674 0.392326 0.360899
v 3.881101 0.545975 0.208365
v 3.917494 0.602214 -0.000001
v 3.881101 0.545975 -0.208366
v 3.768054 0.391661 -0.357181
v -3.867510 -0.024182 -0.424316
vn 0.000000 -0.000000 -1.000000
vn 0.000000 0.000000 1.000000
vn -0.029700 -0.127800 0.991300
vn -0.147600 0.989000 0.000000
vn 0.062100 0.447600 0.892100
vn 0.020800 -0.239700 -0.970600
vn 0.781600 0.621600 0.052200
vn -0.999400 -0.035700 0.000000
vn 0.085500 -0.229700 0.969500
vn 0.804000 0.593300 -0.040700
vn 0.099300 -0.229700 0.968200
vn 0.079200 -0.264700 -0.961100
vn 0.091500 -0.202900 -0.974900
vn -0.997900 -0.064800 0.000000
vn -0.062600 0.450900 -0.890400
vn 0.017100 -0.173900 -0.984600
vn 0.147600 0.989000 0.000000
vn 0.087700 -0.216500 0.972300
vn 0.021200 -0.391600 -0.919900
vn -1.000000 -0.001800 0.000000
vn 0.045700 -0.368400 -0.928600
vn 0.016600 -0.366900 0.930100
vn -0.064100 0.461300 0.884900
vn 0.978400 0.206700 0.000000
vn 0.063600 0.457900 -0.886700
vn -0.963600 0.267400 0.000000
vn -0.042500 0.325000 -0.944700
vn 0.041300 0.315700 0.947900
vn -0.047700 0.364700 0.929900
vn 0.990200 -0.139800 0.000000
vn 0.046100 0.353200 -0.934400
vn -0.990200 0.139800 -0.000000
vn 0.000000 -0.314500 0.949300
vn 0.000000 -0.397000 -0.917800
vn 0.000000 -0.339300 -0.940700
vn -0.301500 0.953500 0.000000
vn 0.144500 0.968100 -0.204700
vn 0.312500 0.949900 0.000000
vn -0.144700 0.969400 0.198200
vn -0.144000 0.964700 -0.220400
vn 0.143800 0.963300 0.226900
vn -0.999600 0.027300 -0.000000
vn 0.083200 -0.220500 0.971800
vn 0.059800 0.457400 0.887300
vn 0.068100 -0.158900 -0.985000
vn 0.805500 0.591200 -0.040800
vn 0.064500 -0.297900 0.952400
vn 0.054400 -0.367400 0.928500
vn 0.087500 -0.204700 -0.974900
vn 0.063600 -0.294000 -0.953700
vn -0.060200 0.460600 -0.885600
vn 0.070800 -0.101400 -0.992300
vn 0.058800 -0.211800 0.975600
vn 0.036100 -0.366600 -0.929700
vn 0.914400 0.400100 0.061000
vn 0.033100 -0.389800 -0.920300
vn -0.041900 -0.294500 0.954700
vn -0.058900 0.450900 0.890600
vn 0.058500 0.447800 -0.892200
vn -0.023700 0.362000 -0.931900
vn 0.023300 0.356300 0.934100
vn -0.021100 0.322900 0.946200
vn 0.020800 0.318200 -0.947800
vn 0.015700 -0.333600 0.942600
vn 0.041600 -0.333000 -0.942000
vn 0.017000 -0.314400 -0.949100
vn 0.133900 0.964600 -0.227000
vn -0.134100 0.966000 0.220900
vn -0.134400 0.968300 -0.210300
vn 0.134300 0.967000 0.216400
vn 0.999400 0.034300 -0.000000
vn 0.046800 -0.388900 0.920100
vn 0.126800 -0.348800 0.928600
vn 0.999600 -0.027300 0.000000
vn -0.428400 -0.887200 0.171200
vn 0.000000 -0.335100 0.942200
vn 0.952400 0.304800 -0.000000
vn 0.031300 -0.281900 0.958900
vn 0.499300 -0.308000 -0.809800
vn 0.512700 -0.416600 -0.750700
vn 0.986000 -0.052000 -0.158200
vn 0.966300 -0.234700 0.105400
vn 0.838400 -0.001300 0.545100
vn -0.012800 0.646200 -0.763000
vn 0.021000 -0.207100 0.978100
vn 0.002200 0.894700 0.446600
vn 0.039200 -0.952700 0.301400
vn -0.013100 -0.109300 -0.993900
vn -0.000500 0.135900 -0.990700
vn 0.016900 0.110900 0.993700
vn 0.025400 -0.645400 -0.763400
vn -0.019500 0.953300 -0.301500
vn 0.018500 -0.424900 0.905100
vn 0.017200 0.680500 0.732600
vn 0.038500 -0.952700 -0.301400
vn -0.705900 0.453500 0.544100
vn -0.980400 -0.197200 0.000000
vn -0.679800 0.159800 -0.715700
vn -0.679800 0.159800 0.715700
vn -0.705900 0.453500 -0.544100
vn -0.932700 -0.078600 -0.352000
vn -0.735300 0.645200 -0.207400
vn -0.735300 0.645200 0.207400
vn 0.192400 0.581700 0.790300
vn 0.499700 -0.426000 -0.754200
vn 0.560300 -0.444000 -0.699200
vn 0.513100 -0.419800 -0.748600
vn 0.947100 -0.178200 0.266800
vn 0.990200 -0.128000 -0.055700
vn -0.014400 0.653200 -0.757000
vn 0.018400 -0.226400 0.973900
vn -0.016800 0.819700 0.572600
vn 0.038500 -0.954300 0.296400
vn 0.010900 -0.225300 -0.974200
vn -0.016500 0.225200 -0.974200
vn 0.019400 0.129900 0.991300
vn 0.027300 -0.653100 -0.756800
vn -0.020300 0.954800 -0.296500
vn 0.024100 -0.384200 0.922900
vn 0.004900 0.609100 0.793100
vn 0.039300 -0.954300 -0.296300
vn -0.889600 -0.099500 0.445800
vn -0.942700 0.239400 0.232400
vn -0.497400 -0.856900 -0.135400
vn -1.000000 0.000000 0.000000
vn -0.986200 -0.137300 0.092300
vn -0.969500 0.000000 -0.245100
vn -0.909200 -0.030200 -0.415300
vn -0.679800 -0.159800 0.715700
vn -0.549400 -0.603000 -0.578400
vn 0.190100 0.628600 0.754200
vn 0.156600 0.632300 -0.758700
vn 0.150600 0.534300 0.831800
vn -0.050100 0.950800 -0.305700
vn 0.025300 -0.951700 0.306000
vn 0.016200 -0.654900 -0.755600
vn 0.014000 0.231800 -0.972700
vn 0.881700 -0.471000 0.026900
vn -0.019500 0.607500 0.794100
vn -0.042800 0.217800 -0.975100
vn -0.046000 0.639600 0.767400
vn 0.031900 -0.422200 0.905900
vn -0.054300 -0.152300 -0.986800
vn 0.183900 0.596800 0.781000
vn 0.022200 -0.954200 0.298200
vn 0.016600 0.636000 -0.771500
vn -0.158800 -0.916500 0.367100
vn -0.008500 0.951900 -0.306200
vn -0.118600 -0.945300 0.303900
vn -0.041500 0.958100 0.283300
vn -0.088000 -0.608300 -0.788800
vn 0.030700 -0.393000 0.919000
vn -0.076000 -0.995200 -0.061700
vn 0.013200 -0.145600 -0.989300
vn 0.154400 0.946800 0.282500
vn 0.049600 0.107900 0.992900
vn 0.085400 0.673600 0.734200
vn -0.319700 -0.538200 -0.779800
vn 0.042800 0.277900 0.959700
vn -0.046000 0.639600 -0.767400
vn -0.042200 0.958100 -0.283300
vn 0.046600 0.489700 -0.870600
vn -0.018300 -0.225900 0.974000
vn -0.041100 -0.912800 -0.406400
vn -0.007900 0.894500 0.447000
vn 0.009500 -0.108600 -0.994000
vn 0.017800 -0.376100 -0.926400
vn 0.152200 0.515100 0.843500
vn -0.011000 -0.854700 -0.519100
vn 0.870300 -0.206200 -0.447300
vn -0.538600 -0.839400 -0.072600
vn -0.050100 0.950800 0.305700
vn 0.664200 0.086100 0.742600
vn -0.279700 -0.913500 0.295400
vn -0.013400 0.646000 0.763200
vn 0.020300 -0.957100 -0.289000
vn -0.015400 -0.652400 0.757700
vn 0.015500 0.956900 -0.290100
vn -0.018400 0.263100 0.964600
vn 0.015900 -0.653200 -0.757000
vn 0.011700 -0.219500 -0.975500
vn 0.012500 -0.225300 -0.974200
vn 0.016000 0.933500 0.358100
vn -0.031500 -0.331600 0.942900
vn 0.078200 0.644300 -0.760700
vn 0.057600 -0.209600 0.976100
vn 0.008600 -0.418600 0.908100
vn -0.000300 -0.953400 0.301600
vn -0.076600 -0.356500 0.931200
vn 0.042800 0.134100 -0.990000
vn 0.049800 0.109100 0.992800
vn 0.043300 -0.567000 -0.822600
vn 0.009000 -0.645600 -0.763600
vn -0.009300 0.953400 -0.301500
vn 0.087800 0.671100 0.736200
vn 0.008700 -0.953400 -0.301600
vn -0.042800 0.217800 0.975100
vn -0.395200 -0.917900 0.034600
vn -0.102300 -0.666800 0.738200
vn -0.121500 -0.883400 0.452600
vn -0.019200 -0.748200 -0.663200
vn 0.013400 -0.217900 -0.975900
vn -0.144800 -0.971200 0.189100
vn 0.006100 -0.218000 0.975900
vn -0.021500 0.495600 -0.868300
vn -0.044200 -0.204600 0.977800
vn -0.045900 -0.957900 0.283300
vn -0.035100 0.209500 -0.977200
vn -0.044200 0.367100 -0.929100
vn -0.046400 0.270500 0.961600
vn 0.921200 -0.362700 0.140600
vn -0.422800 -0.887000 -0.185500
vn -0.457100 -0.852900 0.252200
vn -0.105000 -0.947600 0.301700
vn -0.050100 0.607500 0.792700
vn -0.041000 -0.963600 -0.264200
vn -0.279700 -0.913500 -0.295400
vn 0.941000 -0.337900 0.020700
vn 0.818300 -0.304300 0.487500
vn 0.958100 -0.166100 -0.233400
vn 0.064500 -0.755300 0.652200
vn 0.857000 -0.235100 -0.458600
vn 0.021200 -0.414900 -0.909600
vn -0.386900 -0.473700 0.791200
vn 0.828900 -0.521500 0.202500
vn 0.770200 -0.421700 -0.478600
vn 0.840500 -0.290300 0.457400
vn 0.661500 -0.593800 -0.458000
vn 0.784900 -0.513400 -0.347000
vn -0.449800 -0.839400 -0.305100
vn -0.241700 -0.600400 0.762300
vn 0.154700 0.946700 -0.282500
vn -0.073700 0.066000 0.995100
vn -0.130200 -0.148100 -0.980400
vn -0.439900 -0.844700 0.304800
vn -0.039000 0.043300 0.998300
vn 0.049800 -0.087700 -0.994900
vn 0.045200 0.676100 -0.735400
vn 0.256100 0.920300 -0.295900
vn 0.256000 0.920300 0.295900
vn 0.844200 -0.483600 0.231400
vn 0.128500 0.216100 0.967900
vn 0.037700 -0.451500 0.891500
vn 0.032600 -0.417000 0.908300
vn 0.015000 -0.941900 -0.335500
vn 0.025800 -0.358400 -0.933200
vn 0.199500 0.685700 0.700000
vn 0.019200 -0.954800 -0.296500
vn 0.020600 -0.382000 0.923900
vn 0.016300 0.954900 -0.296500
vn -0.036700 0.120400 0.992100
vn 0.014900 0.225200 -0.974200
vn 0.022000 -0.954700 0.296600
vn -0.013100 0.820700 0.571200
vn 0.013600 0.653200 -0.757000
vn -0.013000 0.968500 0.248800
vn 0.072000 0.992100 -0.102700
vn -0.016400 -0.991600 0.127900
vn 0.035500 0.307800 -0.950800
vn -0.047600 -0.208600 -0.976900
vn -0.043700 0.645800 0.762300
vn -0.015200 -0.415300 -0.909500
vn -0.017700 -0.762400 0.646800
vn 0.053800 0.509300 0.858900
vn -0.422400 -0.899700 -0.109800
vn -0.225500 -0.842200 -0.489800
vn -0.523000 -0.794700 0.308100
vn -0.054400 -0.338400 -0.939400
vn 0.024200 -0.088500 -0.995800
vn 0.031600 -0.374800 -0.926600
vn -0.039200 -0.446500 0.893900
vn -0.131800 -0.933400 -0.333700
vn -0.039600 0.606200 -0.794300
vn -0.056100 0.909800 0.411200
vn -0.042000 -0.947900 0.315800
vn -0.030100 0.228600 -0.973100
vn -0.045600 0.276600 0.959900
vn -0.041400 0.956200 -0.289900
vn -0.049600 -0.650100 0.758300
vn -0.039700 -0.966500 -0.253400
vn 0.025100 -0.712400 0.701300
vn 0.816700 0.254200 0.518000
vn 0.141800 -0.682000 -0.717500
vn 0.327000 -0.650600 0.685400
vn -0.438200 -0.871500 -0.220000
vn 0.049100 0.601900 0.797000
vn 0.154500 0.947400 -0.280200
vn -0.260600 -0.951100 -0.166000
vn -0.024600 0.368500 -0.929300
vn -0.129900 -0.110700 -0.985300
vn 0.155000 0.947400 0.280100
vn -0.152000 -0.144700 0.977700
vn 0.256600 0.958300 -0.125500
vn 0.143000 0.297900 -0.943800
vn 0.224700 0.973700 0.038500
vn 0.134000 0.098300 0.986100
vn 0.036500 -0.393200 0.918700
vn 0.041100 -0.989600 0.137500
vn 0.040200 -0.852600 -0.520900
vn 0.052700 -0.144300 -0.988100
usemtl ironoxide
s off
f 126//1 122//1 90//1
f 125//2 124//2 89//2
f 117//3 113//3 96//3
f 106//4 104//4 93//4
f 136//5 134//5 119//5
f 116//6 115//6 98//6
f 115//7 112//7 99//7
f 113//8 114//8 97//8
f 110//9 109//9 96//9
f 98//10 99//10 102//10
f 109//11 110//11 102//11
f 108//12 98//12 102//12
f 97//13 108//13 110//13
f 96//14 97//14 101//14
f 135//15 138//15 120//15
f 114//16 116//16 108//16
f 95//17 94//17 104//17
f 112//18 117//18 109//18
f 121//1 126//1 105//1
f 128//19 131//19 116//19
f 129//20 128//20 114//20
f 131//21 130//21 115//21
f 132//22 129//22 113//22
f 134//23 133//23 111//23
f 137//24 136//24 118//24
f 138//25 137//25 100//25
f 133//26 135//26 103//26
f 103//27 120//27 126//27
f 118//28 119//28 125//28
f 119//29 111//29 124//29
f 100//30 118//30 123//30
f 120//31 100//31 122//31
f 111//32 103//32 121//32
f 107//33 89//33 129//33
f 105//34 90//34 130//34
f 89//20 175//20 128//20
f 175//35 105//35 131//35
f 92//36 93//36 135//36
f 104//37 94//37 137//37
f 94//38 95//38 136//38
f 106//39 92//39 133//39
f 93//40 104//40 138//40
f 95//41 106//41 134//41
f 89//42 124//42 175//42
f 105//1 126//1 90//1
f 109//43 117//43 96//43
f 92//4 106//4 93//4
f 118//44 136//44 119//44
f 108//45 116//45 98//45
f 98//46 115//46 99//46
f 96//8 113//8 97//8
f 101//47 110//47 96//47
f 99//48 109//48 102//48
f 110//49 108//49 102//49
f 101//50 97//50 110//50
f 103//51 135//51 120//51
f 97//52 114//52 108//52
f 106//17 95//17 104//17
f 99//53 112//53 109//53
f 175//1 121//1 105//1
f 114//54 128//54 116//54
f 113//20 129//20 114//20
f 115//55 130//55 112//55
f 116//56 131//56 115//56
f 117//57 132//57 113//57
f 119//58 134//58 111//58
f 100//24 137//24 118//24
f 120//59 138//59 100//59
f 111//26 133//26 103//26
f 121//60 103//60 126//60
f 123//61 118//61 125//61
f 125//62 119//62 124//62
f 126//63 120//63 122//63
f 124//32 111//32 121//32
f 132//64 107//64 129//64
f 131//65 105//65 130//65
f 129//20 89//20 128//20
f 128//66 175//66 131//66
f 133//36 92//36 135//36
f 138//67 104//67 137//67
f 137//38 94//38 136//38
f 134//68 106//68 133//68
f 135//69 93//69 138//69
f 136//70 95//70 134//70
f 123//2 125//2 107//2
f 107//2 125//2 89//2
f 122//30 100//30 123//30
f 90//71 91//71 127//71
f 127//72 91//72 132//72
f 130//71 90//71 127//71
f 112//73 127//73 117//73
f 91//2 123//2 107//2
f 90//74 122//74 91//74
f 40//75 41//75 53//75
f 91//76 107//76 132//76
f 130//77 127//77 112//77
f 127//78 132//78 117//78
f 122//74 123//74 91//74
f 124//42 121//42 175//42
usemtl bareoak
f 163//79 174//79 12//79
f 164//80 163//80 1//80
f 173//81 172//81 10//81
f 172//82 171//82 9//82
f 171//83 170//83 8//83
f 61//84 68//84 32//84
f 62//85 69//85 33//85
f 63//86 70//86 34//86
f 64//87 71//87 35//87
f 65//88 72//88 36//88
f 72//89 61//89 25//89
f 66//90 62//90 26//90
f 67//91 65//91 29//91
f 68//92 63//92 27//92
f 69//93 64//93 28//93
f 70//94 66//94 30//94
f 71//95 67//95 31//95
f 44//96 45//96 57//96
f 52//97 56//97 60//97
f 48//98 37//98 49//98
f 43//99 44//99 56//99
f 47//100 48//100 60//100
f 37//101 38//101 50//101
f 46//102 47//102 59//102
f 45//103 46//103 58//103
f 85//104 86//104 88//104
f 1//105 163//105 12//105
f 3//106 2//106 1//106
f 2//107 164//107 1//107
f 10//108 172//108 9//108
f 9//109 171//109 8//109
f 25//110 61//110 32//110
f 26//111 62//111 33//111
f 27//112 63//112 34//112
f 28//113 64//113 35//113
f 29//114 65//114 36//114
f 36//115 72//115 25//115
f 30//116 66//116 26//116
f 31//117 67//117 29//117
f 32//118 68//118 27//118
f 33//119 69//119 28//119
f 34//120 70//120 30//120
f 35//121 71//121 31//121
f 56//96 44//96 57//96
f 60//122 49//122 50//122
f 50//123 51//123 52//123
f 52//124 53//124 54//124
f 54//125 55//125 56//125
f 56//125 57//125 58//125
f 58//125 59//125 60//125
f 60//126 50//126 52//126
f 52//127 54//127 56//127
f 56//125 58//125 60//125
f 60//98 48//98 49//98
f 55//99 43//99 56//99
f 50//128 38//128 51//128
f 59//100 47//100 60//100
f 54//129 42//129 55//129
f 49//130 37//130 50//130
f 58//102 46//102 59//102
f 57//103 45//103 58//103
f 87//131 85//131 88//131
f 161//132 159//132 162//132
f 88//133 156//133 87//133
f 46//134 157//134 47//134
f 147//135 145//135 148//135
f 84//136 31//136 82//136
f 156//2 155//2 87//2
f 77//137 36//137 78//137
f 5//138 4//138 3//138
f 34//139 30//139 83//139
f 48//140 161//140 37//140
f 153//141 155//141 45//141
f 69//142 150//142 64//142
f 21//143 82//143 22//143
f 86//144 154//144 88//144
f 81//145 28//145 76//145
f 78//146 25//146 73//146
f 5//147 167//147 4//147
f 160//148 158//148 63//148
f 145//149 147//149 41//149
f 17//150 80//150 18//150
f 84//151 82//151 21//151
f 152//152 150//152 69//152
f 39//153 143//153 40//153
f 42//129 43//129 55//129
f 142//154 140//154 72//154
f 172//155 17//155 171//155
f 154//156 152//156 62//156
f 171//157 18//157 170//157
f 165//158 24//158 164//158
f 23//159 15//159 169//159
f 159//160 161//160 48//160
f 14//161 73//161 17//161
f 13//162 14//162 173//162
f 26//163 33//163 74//163
f 24//164 84//164 21//164
f 63//165 158//165 70//165
f 65//166 142//166 72//166
f 141//167 139//167 142//167
f 154//168 156//168 88//168
f 146//169 144//169 67//169
f 174//170 173//170 11//170
f 52//171 40//171 53//171
f 45//172 155//172 46//172
f 7//173 169//173 6//173
f 167//174 166//174 4//174
f 75//175 34//175 83//175
f 85//2 153//2 86//2
f 87//2 155//2 85//2
f 76//176 35//176 84//176
f 74//177 33//177 81//177
f 73//178 32//178 80//178
f 83//179 30//179 79//179
f 31//180 29//180 82//180
f 82//181 29//181 77//181
f 29//182 36//182 77//182
f 80//183 27//183 75//183
f 79//184 26//184 74//184
f 61//185 162//185 68//185
f 62//186 152//186 69//186
f 147//187 149//187 42//187
f 64//188 148//188 71//188
f 79//189 74//189 16//189
f 72//190 140//190 61//190
f 66//191 154//191 62//191
f 3//192 165//192 2//192
f 67//193 144//193 65//193
f 68//194 160//194 63//194
f 70//195 156//195 66//195
f 71//196 146//196 67//196
f 151//197 153//197 44//197
f 53//198 41//198 54//198
f 51//199 39//199 52//199
f 41//200 147//200 42//200
f 38//201 141//201 39//201
f 43//197 151//197 44//197
f 37//202 139//202 38//202
f 40//203 145//203 41//203
f 42//204 149//204 43//204
f 47//160 159//160 48//160
f 13//205 78//205 14//205
f 15//206 79//206 16//206
f 19//207 81//207 20//207
f 163//208 22//208 174//208
f 22//209 77//209 13//209
f 23//210 83//210 15//210
f 11//211 10//211 9//211
f 16//212 19//212 167//212
f 19//213 20//213 166//213
f 16//214 74//214 19//214
f 18//215 75//215 23//215
f 20//216 76//216 24//216
f 4//217 166//217 3//217
f 7//218 5//218 3//218
f 6//219 168//219 5//219
f 11//220 173//220 10//220
f 147//221 148//221 150//221
f 12//222 174//222 11//222
f 141//223 142//223 144//223
f 8//224 170//224 7//224
f 11//225 9//225 7//225
f 3//226 1//226 11//226
f 7//227 6//227 5//227
f 9//228 8//228 7//228
f 1//229 12//229 11//229
f 166//230 20//230 165//230
f 168//231 16//231 167//231
f 173//232 14//232 172//232
f 170//233 23//233 169//233
f 164//234 21//234 163//234
f 167//235 19//235 166//235
f 169//236 15//236 168//236
f 44//141 153//141 45//141
f 139//237 161//237 140//237
f 174//238 13//238 173//238
f 159//239 157//239 160//239
f 157//240 155//240 158//240
f 11//241 7//241 3//241
f 153//242 151//242 154//242
f 151//243 149//243 152//243
f 149//244 147//244 150//244
f 145//245 143//245 146//245
f 143//246 141//246 144//246
f 153//247 154//247 86//247
f 155//2 153//2 85//2
f 35//248 31//248 84//248
f 33//249 28//249 81//249
f 32//250 27//250 80//250
f 30//251 26//251 79//251
f 36//252 25//252 78//252
f 28//253 35//253 76//253
f 27//254 34//254 75//254
f 25//255 32//255 73//255
f 162//256 160//256 68//256
f 158//257 156//257 70//257
f 148//258 146//258 71//258
f 140//259 162//259 61//259
f 82//260 77//260 22//260
f 75//261 83//261 23//261
f 144//262 142//262 65//262
f 150//263 148//263 64//263
f 156//264 154//264 66//264
f 41//265 42//265 54//265
f 38//266 39//266 51//266
f 39//267 40//267 52//267
f 157//134 159//134 47//134
f 141//268 143//268 39//268
f 161//269 139//269 37//269
f 139//270 141//270 38//270
f 155//172 157//172 46//172
f 149//271 151//271 43//271
f 143//272 145//272 40//272
f 78//273 73//273 14//273
f 80//274 75//274 18//274
f 81//275 76//275 20//275
f 77//276 78//276 13//276
f 83//277 79//277 15//277
f 73//278 80//278 17//278
f 74//279 81//279 19//279
f 76//280 84//280 24//280
f 166//217 165//217 3//217
f 168//281 167//281 5//281
f 169//282 168//282 6//282
f 165//283 164//283 2//283
f 170//284 169//284 7//284
f 20//285 24//285 165//285
f 18//286 23//286 170//286
f 14//287 17//287 172//287
f 24//288 21//288 164//288
f 22//289 13//289 174//289
f 21//290 22//290 163//290
f 17//291 18//291 171//291
f 15//292 16//292 168//292
f 159//293 160//293 162//293
f 161//294 162//294 140//294
f 157//239 158//239 160//239
f 155//295 156//295 158//295
f 151//296 152//296 154//296
f 149//297 150//297 152//297
f 145//298 146//298 148//298
f 143//299 144//299 146//299
f 139//300 140//300 142//300
