# Blender v2.76 (sub 0) OBJ File: ''
# www.blender.org
mtllib untitled.mtl
o Cylinder
v 0.000763 -1.007022 -1.107525
v 0.000728 3.787342 -0.018166
v 0.781088 -1.000000 -0.780361
v 0.013573 3.787342 -0.012845
v 1.108289 -1.007022 0.000000
v 0.018893 3.787342 -0.000000
v 0.781088 -1.000000 0.780361
v 0.013573 3.787342 0.012845
v 0.000763 -1.007022 1.107525
v 0.000728 3.787342 0.018166
v -0.779633 -1.000000 0.780360
v -0.012118 3.787342 0.012845
v -1.106762 -1.007022 -0.000000
v -0.017438 3.787342 -0.000000
v -0.779633 -1.000000 -0.780360
v -0.012118 3.787342 -0.012845
v 0.000763 -0.206291 -0.938242
v 0.000763 0.594440 -0.768958
v -0.000861 1.290895 -0.632807
v 0.000763 2.195902 -0.430391
v 0.000763 2.996633 -0.261107
v 0.184703 2.989452 -0.183976
v 0.302356 2.087286 -0.336385
v 0.421633 1.289395 -0.455662
v 0.542534 0.595781 -0.541807
v 0.661811 -0.202110 -0.661084
v 0.261871 2.996633 0.000000
v 0.431154 2.195902 0.000000
v 0.600438 1.395171 0.000000
v 0.769722 0.594440 0.000000
v 0.939005 -0.206291 0.000000
v 0.184703 2.989452 0.183976
v 0.303980 2.191561 0.303253
v 0.423257 1.393671 0.422530
v 0.542534 0.595781 0.541807
v 0.661811 -0.202110 0.661084
v 0.000763 2.996633 0.261107
v 0.000763 2.195902 0.430391
v 0.000763 1.395171 0.599675
v 0.000763 0.594440 0.768958
v 0.000763 -0.206291 0.938242
v -0.183248 2.989452 0.183976
v -0.302525 2.191561 0.303253
v -0.421802 1.393671 0.422530
v -0.541079 0.595781 0.541807
v -0.660356 -0.202110 0.661083
v -0.260344 2.996633 -0.000000
v -0.429628 2.195902 -0.000000
v -0.598911 1.395171 -0.000000
v -0.768195 0.594440 -0.000000
v -0.937478 -0.206291 -0.000000
v -0.183248 2.989452 -0.183976
v -0.304150 2.087286 -0.336385
v -0.423427 1.289395 -0.455662
v -0.541079 0.595781 -0.541807
v -0.660356 -0.202110 -0.661084
v -0.011811 2.858096 -0.405967
v 0.286258 2.877001 -0.310760
v 0.358097 2.847013 0.000000
v 0.262106 2.852138 0.275373
v -0.026202 2.847013 0.384298
v -0.270378 2.854770 0.252000
v -0.412805 2.856853 0.024767
v -0.285612 2.871689 -0.313337
v -0.000861 2.040197 -0.589430
v 0.391069 2.112031 -0.425099
v 0.530096 2.081488 0.000000
v 0.365825 2.156353 0.391966
v -0.026202 2.081488 0.556298
v -0.418109 2.156353 0.391966
v -0.582500 2.081488 -0.000000
v -0.392864 2.112031 -0.425099
v -0.000861 1.279757 -0.756052
v 0.508470 1.302756 -0.542500
v 0.696717 1.321048 0.000000
v 0.483226 1.347077 0.509368
v -0.026202 1.321048 0.722919
v -0.535510 1.347077 0.509368
v -0.749121 1.321048 -0.000000
v -0.510265 1.302756 -0.542500
v -0.000861 0.509146 -0.976449
v 0.663762 0.482657 -0.697791
v 0.917114 0.550438 0.000000
v 0.638517 0.526978 0.664659
v -0.026202 0.550438 0.943316
v -0.690801 0.526978 0.664659
v -0.969518 0.550438 -0.000000
v -0.665556 0.482657 -0.697791
v -0.000861 -0.256379 -1.164917
v 0.796556 -0.332030 -0.830585
v 1.105582 -0.215087 0.000000
v 0.771311 -0.287709 0.797453
v -0.026202 -0.215087 1.131784
v -0.823595 -0.287709 0.797453
v -1.157986 -0.215087 -0.000000
v -0.798350 -0.332030 -0.830585
v 0.890562 -1.142607 -0.923751
v 1.244461 -0.982678 -0.002125
v 0.869635 -1.105867 0.892036
v -0.024575 -0.982678 1.266911
v -0.918687 -1.105867 0.892035
v -1.293612 -0.982678 -0.002125
v -0.897760 -1.142607 -0.923751
v -0.003569 -1.016907 -1.298627
v 0.013999 -1.619397 -0.333291
v 0.013999 -0.630931 -0.333291
v 0.233713 -1.619397 -0.242283
v 0.233713 -0.630931 -0.242283
v 0.324721 -1.619397 -0.022569
v 0.324721 -0.630931 -0.022569
v 0.233713 -1.619397 0.197145
v 0.233713 -0.630931 0.197145
v 0.013999 -1.619397 0.288154
v 0.013999 -0.630931 0.288154
v -0.205715 -1.619397 0.197145
v -0.205715 -0.630931 0.197145
v -0.296723 -1.619397 -0.022569
v -0.296723 -0.630931 -0.022569
v -0.205715 -1.619397 -0.242283
v -0.205715 -0.630931 -0.242283
v 0.013999 -1.259204 -0.271466
v 0.189996 -1.259204 -0.198566
v 0.262897 -1.259204 -0.022569
v 0.189996 -1.259204 0.153428
v 0.013999 -1.259204 0.226329
v -0.161998 -1.259204 0.153428
v -0.234898 -1.259204 -0.022569
v -0.161998 -1.259204 -0.198566
vn 0.265500 0.369500 -0.890500
vn 0.922900 0.335500 -0.189000
vn 0.894500 0.323500 0.308700
vn 0.329200 0.334800 0.882900
vn -0.436700 0.336200 0.834500
vn -0.796600 0.349400 0.493300
vn 0.000000 1.000000 -0.000000
vn -0.284000 0.373500 -0.883100
vn -0.876100 0.364500 -0.315400
vn -0.000000 -1.000000 0.000000
vn -0.847600 0.354000 -0.395200
vn -0.839500 0.377600 -0.390700
vn -0.837000 0.369700 -0.403500
vn -0.857400 0.321500 -0.401900
vn -0.875300 0.309600 -0.371400
vn -0.384800 0.356100 -0.851500
vn -0.375500 0.380100 -0.845300
vn -0.367200 0.370600 -0.853100
vn -0.364100 0.318200 -0.875300
vn -0.336800 0.314400 -0.887500
vn -0.849200 0.362800 0.383800
vn -0.841400 0.390500 0.373600
vn -0.853400 0.370800 0.366300
vn -0.875400 0.324300 0.358400
vn -0.886000 0.322000 0.333700
vn -0.384900 0.349500 0.854200
vn -0.375000 0.377800 0.846500
vn -0.368100 0.357400 0.858300
vn -0.360600 0.309700 0.879800
vn -0.337100 0.306700 0.890100
vn 0.386400 0.329000 0.861700
vn 0.377200 0.357100 0.854500
vn 0.370600 0.337000 0.865500
vn 0.363600 0.289000 0.885600
vn 0.341300 0.287700 0.894800
vn 0.865700 0.317200 0.387200
vn 0.859400 0.343800 0.378600
vn 0.870100 0.323100 0.372200
vn 0.889500 0.274000 0.365600
vn 0.898500 0.271900 0.344700
vn 0.866100 0.327700 -0.377600
vn 0.860900 0.353200 -0.366100
vn 0.860300 0.346000 -0.374400
vn 0.884000 0.296200 -0.361700
vn 0.907500 0.282100 -0.311300
vn 0.385100 0.352800 -0.852800
vn 0.375600 0.378900 -0.845800
vn 0.367200 0.370600 -0.853100
vn 0.365400 0.317500 -0.875000
vn 0.337100 0.313300 -0.887800
vn 0.639700 -0.730300 0.239600
vn 0.217900 -0.756900 0.616100
vn 0.640500 -0.679900 -0.357200
vn 0.345700 -0.615300 -0.708500
vn -0.294100 -0.605000 -0.739900
vn -0.773400 -0.561600 -0.294000
vn -0.736500 -0.648700 0.191900
vn -0.205900 -0.751400 0.626900
vn -0.197500 -0.893700 0.403000
vn -0.337600 -0.916900 0.212700
vn -0.615100 -0.767700 -0.180000
vn -0.146900 -0.822500 -0.549500
vn 0.127100 -0.851300 -0.509100
vn 0.458200 -0.882900 -0.102600
vn 0.196000 -0.894700 0.401400
vn 0.272000 -0.939400 0.208900
vn 0.023400 -0.999700 -0.000900
vn -0.221700 -0.954300 0.200200
vn -0.527300 -0.825900 -0.199300
vn -0.174200 -0.865400 -0.469900
vn 0.150400 -0.897300 -0.414900
vn 0.375600 -0.917100 -0.133300
vn -0.023400 -0.999700 -0.000900
vn 0.176600 -0.965100 0.193300
vn -0.194500 -0.886500 0.419900
vn -0.403200 -0.892000 0.204100
vn -0.346400 -0.924000 -0.162200
vn -0.151200 -0.935300 -0.319900
vn 0.135000 -0.950300 -0.280400
vn 0.262700 -0.956400 -0.127700
vn 0.193500 -0.887800 0.417500
vn 0.347300 -0.916600 0.197900
vn -0.192300 -0.916200 0.351600
vn -0.317500 -0.928000 0.194900
vn -0.252400 -0.955800 -0.150700
vn -0.145000 -0.960300 -0.238500
vn 0.130400 -0.970600 -0.202500
vn 0.194100 -0.972700 -0.127000
vn 0.191400 -0.917200 0.349300
vn 0.275400 -0.942600 0.188800
vn -0.211300 -0.912700 0.349700
vn -0.319800 -0.923700 0.210900
vn -0.259400 -0.949800 -0.174700
vn -0.169900 -0.953900 -0.247300
vn 0.150900 -0.968200 -0.199700
vn 0.192800 -0.970000 -0.148100
vn 0.208200 -0.916500 0.341600
vn 0.270100 -0.942000 0.199400
vn 0.381100 -0.090500 -0.920100
vn 0.920100 -0.090500 -0.381100
vn 0.920100 -0.090500 0.381100
vn 0.381100 -0.090500 0.920100
vn -0.381100 -0.090500 0.920100
vn -0.920100 -0.090500 0.381100
vn -0.381100 -0.090500 -0.920100
vn -0.920100 -0.090500 -0.381100
vn -0.912500 0.156600 -0.378000
vn -0.378000 0.156600 -0.912500
vn -0.912500 0.156600 0.378000
vn -0.378000 0.156600 0.912500
vn 0.378000 0.156600 0.912500
vn 0.912500 0.156600 0.378000
vn 0.912500 0.156600 -0.378000
vn 0.378000 0.156600 -0.912500
usemtl leaves
s off
f 57//1 2//1 4//1 58//1
f 58//2 4//2 6//2 59//2
f 59//3 6//3 8//3 60//3
f 60//4 8//4 10//4 61//4
f 61//5 10//5 12//5 62//5
f 62//6 12//6 14//6 63//6
f 4//7 2//7 16//7 14//7 12//7 10//7 8//7 6//7
f 64//8 16//8 2//8 57//8
f 63//9 14//9 16//9 64//9
f 1//10 3//10 5//10 7//10 9//10 11//10 13//10 15//10
f 102//11 51//11 56//11 103//11
f 95//12 50//12 55//12 96//12
f 87//13 49//13 54//13 88//13
f 79//14 48//14 53//14 80//14
f 71//15 47//15 52//15 72//15
f 103//16 56//16 17//16 104//16
f 96//17 55//17 18//17 89//17
f 88//18 54//18 19//18 81//18
f 80//19 53//19 20//19 73//19
f 72//20 52//20 21//20 65//20
f 101//21 46//21 51//21 102//21
f 94//22 45//22 50//22 95//22
f 86//23 44//23 49//23 87//23
f 78//24 43//24 48//24 79//24
f 70//25 42//25 47//25 71//25
f 100//26 41//26 46//26 101//26
f 93//27 40//27 45//27 94//27
f 85//28 39//28 44//28 86//28
f 77//29 38//29 43//29 78//29
f 69//30 37//30 42//30 70//30
f 99//31 36//31 41//31 100//31
f 92//32 35//32 40//32 93//32
f 84//33 34//33 39//33 85//33
f 76//34 33//34 38//34 77//34
f 68//35 32//35 37//35 69//35
f 98//36 31//36 36//36 99//36
f 91//37 30//37 35//37 92//37
f 83//38 29//38 34//38 84//38
f 75//39 28//39 33//39 76//39
f 67//40 27//40 32//40 68//40
f 97//41 26//41 31//41 98//41
f 90//42 25//42 30//42 91//42
f 82//43 24//43 29//43 83//43
f 74//44 23//44 28//44 75//44
f 66//45 22//45 27//45 67//45
f 104//46 17//46 26//46 97//46
f 89//47 18//47 25//47 90//47
f 81//48 19//48 24//48 82//48
f 73//49 20//49 23//49 74//49
f 65//50 21//50 22//50 66//50
f 47//51 63//51 64//51 52//51
f 52//52 64//52 57//52 21//52
f 42//53 62//53 63//53 47//53
f 37//54 61//54 62//54 42//54
f 32//55 60//55 61//55 37//55
f 27//56 59//56 60//56 32//56
f 22//57 58//57 59//57 27//57
f 21//58 57//58 58//58 22//58
f 20//59 65//59 66//59 23//59
f 23//60 66//60 67//60 28//60
f 28//61 67//61 68//61 33//61
f 33//62 68//62 69//62 38//62
f 38//63 69//63 70//63 43//63
f 43//64 70//64 71//64 48//64
f 53//65 72//65 65//65 20//65
f 48//66 71//66 72//66 53//66
f 19//67 73//67 74//67 24//67
f 24//68 74//68 75//68 29//68
f 29//69 75//69 76//69 34//69
f 34//70 76//70 77//70 39//70
f 39//71 77//71 78//71 44//71
f 44//72 78//72 79//72 49//72
f 54//73 80//73 73//73 19//73
f 49//74 79//74 80//74 54//74
f 18//75 81//75 82//75 25//75
f 25//76 82//76 83//76 30//76
f 30//77 83//77 84//77 35//77
f 35//78 84//78 85//78 40//78
f 40//79 85//79 86//79 45//79
f 45//80 86//80 87//80 50//80
f 55//81 88//81 81//81 18//81
f 50//82 87//82 88//82 55//82
f 17//83 89//83 90//83 26//83
f 26//84 90//84 91//84 31//84
f 31//85 91//85 92//85 36//85
f 36//86 92//86 93//86 41//86
f 41//87 93//87 94//87 46//87
f 46//88 94//88 95//88 51//88
f 56//89 96//89 89//89 17//89
f 51//90 95//90 96//90 56//90
f 1//91 104//91 97//91 3//91
f 3//92 97//92 98//92 5//92
f 5//93 98//93 99//93 7//93
f 7//94 99//94 100//94 9//94
f 9//95 100//95 101//95 11//95
f 11//96 101//96 102//96 13//96
f 15//97 103//97 104//97 1//97
f 13//98 102//98 103//98 15//98
usemtl trunk
f 121//99 106//99 108//99 122//99
f 122//100 108//100 110//100 123//100
f 123//101 110//101 112//101 124//101
f 124//102 112//102 114//102 125//102
f 125//103 114//103 116//103 126//103
f 126//104 116//104 118//104 127//104
f 108//7 106//7 120//7 118//7 116//7 114//7 112//7 110//7
f 128//105 120//105 106//105 121//105
f 127//106 118//106 120//106 128//106
f 105//10 107//10 109//10 111//10 113//10 115//10 117//10 119//10
f 117//107 127//107 128//107 119//107
f 119//108 128//108 121//108 105//108
f 115//109 126//109 127//109 117//109
f 113//110 125//110 126//110 115//110
f 111//111 124//111 125//111 113//111
f 109//112 123//112 124//112 111//112
f 107//113 122//113 123//113 109//113
f 105//114 121//114 122//114 107//114
