# 3ds Max Wavefront OBJ Exporter v0.97b - (c)2007 guruware
# File Created: 27.05.2012 16:43:35

mtllib Tube.mtl

#
# object Tube001
#

v  -0.000002 -50.137955 -38.655159
v  -0.000002 -30.082773 -38.655159
v  -0.000002 -10.027592 -38.655159
v  -0.000002 10.027592 -38.655159
v  -0.000002 30.082771 -38.655159
v  -0.000002 50.137955 -38.655159
v  -0.000001 50.137955 -30.913307
v  -0.000001 30.082771 -30.913307
v  -0.000001 10.027592 -30.913307
v  -0.000001 -10.027592 -30.913307
v  -0.000001 -30.082773 -30.913307
v  -0.000001 -50.137955 -30.913307
v  15.896153 -50.137955 -35.276329
v  15.896153 -30.082773 -35.276329
v  15.896153 -10.027592 -35.276329
v  15.896153 10.027592 -35.276329
v  15.896153 30.082771 -35.276329
v  15.896153 50.137955 -35.276329
v  12.747256 50.137955 -28.203789
v  12.747256 30.082771 -28.203789
v  12.747256 10.027592 -28.203789
v  12.747256 -10.027592 -28.203789
v  12.747256 -30.082773 -28.203789
v  12.747256 -50.137955 -28.203789
v  29.043718 -50.137955 -25.724068
v  29.043718 -30.082773 -25.724068
v  29.043718 -10.027592 -25.724068
v  29.043718 10.027592 -25.724068
v  29.043718 30.082771 -25.724068
v  29.043718 50.137955 -25.724068
v  23.290398 50.137955 -20.543755
v  23.290398 30.082771 -20.543755
v  23.290398 10.027592 -20.543755
v  23.290398 -10.027592 -20.543755
v  23.290398 -30.082773 -20.543755
v  23.290398 -50.137955 -20.543755
v  37.169361 -50.137955 -11.650040
v  37.169361 -30.082773 -11.650040
v  37.169361 -10.027592 -11.650040
v  37.169361 10.027592 -11.650040
v  37.169361 30.082771 -11.650040
v  37.169361 50.137955 -11.650040
v  29.806419 50.137955 -9.257675
v  29.806419 30.082771 -9.257675
v  29.806419 10.027592 -9.257675
v  29.806419 -10.027592 -9.257675
v  29.806419 -30.082773 -9.257675
v  29.806419 -50.137955 -9.257675
v  38.868084 -50.137955 4.512218
v  38.868084 -30.082773 4.512218
v  38.868084 -10.027592 4.512218
v  38.868084 10.027592 4.512218
v  38.868084 30.082771 4.512218
v  38.868084 50.137955 4.512218
v  31.168638 50.137955 3.702972
v  31.168638 30.082771 3.702972
v  31.168638 10.027592 3.702972
v  31.168638 -10.027592 3.702972
v  31.168638 -30.082773 3.702972
v  31.168638 -50.137955 3.702972
v  33.846161 -50.137955 19.968107
v  33.846161 -30.082773 19.968107
v  33.846161 -10.027592 19.968107
v  33.846161 10.027592 19.968107
v  33.846161 30.082771 19.968107
v  33.846161 50.137955 19.968107
v  27.141518 50.137955 16.097179
v  27.141518 30.082771 16.097179
v  27.141518 10.027592 16.097179
v  27.141518 -10.027592 16.097179
v  27.141518 -30.082773 16.097179
v  27.141518 -50.137955 16.097179
v  22.971930 -50.137955 32.045166
v  22.971930 -30.082773 32.045166
v  22.971930 -10.027592 32.045166
v  22.971930 10.027592 32.045166
v  22.971930 30.082771 32.045166
v  22.971930 50.137955 32.045166
v  18.421379 50.137955 25.781872
v  18.421379 30.082771 25.781872
v  18.421379 10.027592 25.781872
v  18.421379 -10.027592 25.781872
v  18.421379 -30.082773 25.781872
v  18.421379 -50.137955 25.781872
v  8.125641 -50.137955 38.655159
v  8.125641 -30.082773 38.655159
v  8.125641 -10.027592 38.655159
v  8.125641 10.027592 38.655159
v  8.125641 30.082771 38.655159
v  8.125641 50.137955 38.655159
v  6.516018 50.137955 31.082479
v  6.516018 30.082771 31.082479
v  6.516018 10.027592 31.082479
v  6.516018 -10.027592 31.082479
v  6.516018 -30.082773 31.082479
v  6.516018 -50.137955 31.082479
v  -8.125645 -50.137955 38.655155
v  -8.125645 -30.082773 38.655155
v  -8.125645 -10.027592 38.655155
v  -8.125645 10.027592 38.655155
v  -8.125645 30.082771 38.655155
v  -8.125645 50.137955 38.655155
v  -6.516022 50.137955 31.082478
v  -6.516022 30.082771 31.082478
v  -6.516022 10.027592 31.082478
v  -6.516022 -10.027592 31.082478
v  -6.516022 -30.082773 31.082478
v  -6.516022 -50.137955 31.082478
v  -22.971928 -50.137955 32.045166
v  -22.971928 -30.082773 32.045166
v  -22.971928 -10.027592 32.045166
v  -22.971928 10.027592 32.045166
v  -22.971928 30.082771 32.045166
v  -22.971928 50.137955 32.045166
v  -18.421375 50.137955 25.781872
v  -18.421375 30.082771 25.781872
v  -18.421375 10.027592 25.781872
v  -18.421375 -10.027592 25.781872
v  -18.421375 -30.082773 25.781872
v  -18.421375 -50.137955 25.781872
v  -33.846161 -50.137955 19.968109
v  -33.846161 -30.082773 19.968109
v  -33.846161 -10.027592 19.968109
v  -33.846161 10.027592 19.968109
v  -33.846161 30.082771 19.968109
v  -33.846161 50.137955 19.968109
v  -27.141514 50.137955 16.097179
v  -27.141514 30.082771 16.097179
v  -27.141514 10.027592 16.097179
v  -27.141514 -10.027592 16.097179
v  -27.141514 -30.082773 16.097179
v  -27.141514 -50.137955 16.097179
v  -38.868084 -50.137955 4.512218
v  -38.868084 -30.082773 4.512218
v  -38.868084 -10.027592 4.512218
v  -38.868084 10.027592 4.512218
v  -38.868084 30.082771 4.512218
v  -38.868084 50.137955 4.512218
v  -31.168636 50.137955 3.702972
v  -31.168636 30.082771 3.702972
v  -31.168636 10.027592 3.702972
v  -31.168636 -10.027592 3.702972
v  -31.168636 -30.082773 3.702972
v  -31.168636 -50.137955 3.702972
v  -37.169361 -50.137955 -11.650040
v  -37.169361 -30.082773 -11.650040
v  -37.169361 -10.027592 -11.650040
v  -37.169361 10.027592 -11.650040
v  -37.169361 30.082771 -11.650040
v  -37.169361 50.137955 -11.650040
v  -29.806419 50.137955 -9.257675
v  -29.806419 30.082771 -9.257675
v  -29.806419 10.027592 -9.257675
v  -29.806419 -10.027592 -9.257675
v  -29.806419 -30.082773 -9.257675
v  -29.806419 -50.137955 -9.257675
v  -29.043720 -50.137955 -25.724068
v  -29.043720 -30.082773 -25.724068
v  -29.043720 -10.027592 -25.724068
v  -29.043720 10.027592 -25.724068
v  -29.043720 30.082771 -25.724068
v  -29.043720 50.137955 -25.724068
v  -23.290398 50.137955 -20.543755
v  -23.290398 30.082771 -20.543755
v  -23.290398 10.027592 -20.543755
v  -23.290398 -10.027592 -20.543755
v  -23.290398 -30.082773 -20.543755
v  -23.290398 -50.137955 -20.543755
v  -15.896154 -50.137955 -35.276329
v  -15.896154 -30.082773 -35.276329
v  -15.896154 -10.027592 -35.276329
v  -15.896154 10.027592 -35.276329
v  -15.896154 30.082771 -35.276329
v  -15.896154 50.137955 -35.276329
v  -12.747257 50.137955 -28.203789
v  -12.747257 30.082771 -28.203789
v  -12.747257 10.027592 -28.203789
v  -12.747257 -10.027592 -28.203789
v  -12.747257 -30.082773 -28.203789
v  -12.747257 -50.137955 -28.203789
# 180 vertices

vn 0.207912 0.000000 -0.978148
vn 0.000000 1.000000 -0.000000
vn -0.207912 0.000000 0.978148
vn 0.000000 -1.000000 -0.000000
vn 0.587785 0.000000 -0.809017
vn -0.587785 0.000000 0.809017
vn 0.866025 0.000000 -0.500000
vn -0.866025 0.000000 0.500000
vn 0.994522 0.000000 -0.104529
vn -0.994522 0.000000 0.104528
vn 0.951056 0.000000 0.309017
vn 0.951057 0.000000 0.309017
vn -0.951057 0.000000 -0.309017
vn 0.743145 0.000000 0.669131
vn -0.743145 0.000000 -0.669131
vn 0.406737 0.000000 0.913545
vn -0.406737 0.000000 -0.913545
vn -0.406737 0.000000 -0.913546
vn -0.000000 0.000000 1.000000
vn 0.000000 0.000000 -1.000000
vn -0.406736 0.000000 0.913545
vn -0.406737 0.000000 0.913545
vn 0.406737 0.000000 -0.913545
vn -0.743145 0.000000 0.669131
vn 0.743145 0.000000 -0.669131
vn -0.951057 0.000000 0.309017
vn -0.951056 0.000000 0.309017
vn 0.951057 0.000000 -0.309017
vn -0.994522 0.000000 -0.104529
vn 0.994522 0.000000 0.104528
vn -0.866026 0.000000 -0.500000
vn -0.866025 0.000000 -0.500000
vn 0.866025 0.000000 0.500000
vn -0.587785 0.000000 -0.809017
vn 0.587785 0.000000 0.809017
vn -0.207912 0.000000 -0.978148
vn 0.207912 0.000000 0.978148
# 37 vertex normals

vt 0.083333 0.000000 0.000000
vt 0.083333 0.066667 0.000000
vt 0.000000 0.066667 0.000000
vt 0.000000 0.000000 0.000000
vt 0.166667 0.000000 0.000000
vt 0.166667 0.066667 0.000000
vt 0.250000 0.000000 0.000000
vt 0.250000 0.066667 0.000000
vt 0.333333 0.000000 0.000000
vt 0.333333 0.066667 0.000000
vt 0.416667 0.000000 0.000000
vt 0.416667 0.066667 0.000000
vt 0.500000 0.000000 0.000000
vt 0.500000 0.066667 0.000000
vt 0.583333 0.000000 0.000000
vt 0.583333 0.066667 0.000000
vt 0.666667 0.000000 0.000000
vt 0.666667 0.066667 0.000000
vt 0.750000 0.000000 0.000000
vt 0.750000 0.066667 0.000000
vt 0.833333 0.000000 0.000000
vt 0.833333 0.066667 0.000000
vt 0.916667 0.000000 0.000000
vt 0.916667 0.066667 0.000000
vt 1.000000 0.000000 0.000000
vt 1.000000 0.066667 0.000000
vt 0.083333 0.133333 0.000000
vt 0.000000 0.133333 0.000000
vt 0.166667 0.133333 0.000000
vt 0.250000 0.133333 0.000000
vt 0.333333 0.133333 0.000000
vt 0.416667 0.133333 0.000000
vt 0.500000 0.133333 0.000000
vt 0.583333 0.133333 0.000000
vt 0.666667 0.133333 0.000000
vt 0.750000 0.133333 0.000000
vt 0.833333 0.133333 0.000000
vt 0.916667 0.133333 0.000000
vt 1.000000 0.133333 0.000000
vt 0.083333 0.200000 0.000000
vt 0.000000 0.200000 0.000000
vt 0.166667 0.200000 0.000000
vt 0.250000 0.200000 0.000000
vt 0.333333 0.200000 0.000000
vt 0.416667 0.200000 0.000000
vt 0.500000 0.200000 0.000000
vt 0.583333 0.200000 0.000000
vt 0.666667 0.200000 0.000000
vt 0.750000 0.200000 0.000000
vt 0.833333 0.200000 0.000000
vt 0.916667 0.200000 0.000000
vt 1.000000 0.200000 0.000000
vt 0.083333 0.266667 0.000000
vt 0.000000 0.266667 0.000000
vt 0.166667 0.266667 0.000000
vt 0.250000 0.266667 0.000000
vt 0.333333 0.266667 0.000000
vt 0.416667 0.266667 0.000000
vt 0.500000 0.266667 0.000000
vt 0.583333 0.266667 0.000000
vt 0.666667 0.266667 0.000000
vt 0.750000 0.266667 0.000000
vt 0.833333 0.266667 0.000000
vt 0.916667 0.266667 0.000000
vt 1.000000 0.266667 0.000000
vt 0.083333 0.333333 0.000000
vt 0.000000 0.333333 0.000000
vt 0.166667 0.333333 0.000000
vt 0.250000 0.333333 0.000000
vt 0.333333 0.333333 0.000000
vt 0.416667 0.333333 0.000000
vt 0.500000 0.333333 0.000000
vt 0.583333 0.333333 0.000000
vt 0.666667 0.333333 0.000000
vt 0.750000 0.333333 0.000000
vt 0.833333 0.333333 0.000000
vt 0.916667 0.333333 0.000000
vt 1.000000 0.333333 0.000000
vt 0.083333 0.400000 0.000000
vt 0.000000 0.400000 0.000000
vt 0.166667 0.400000 0.000000
vt 0.250000 0.400000 0.000000
vt 0.333333 0.400000 0.000000
vt 0.416667 0.400000 0.000000
vt 0.500000 0.400000 0.000000
vt 0.583333 0.400000 0.000000
vt 0.666667 0.400000 0.000000
vt 0.750000 0.400000 0.000000
vt 0.833333 0.400000 0.000000
vt 0.916667 0.400000 0.000000
vt 1.000000 0.400000 0.000000
vt 0.083333 0.466667 0.000000
vt 0.000000 0.466667 0.000000
vt 0.166667 0.466667 0.000000
vt 0.250000 0.466667 0.000000
vt 0.333333 0.466667 0.000000
vt 0.416667 0.466667 0.000000
vt 0.500000 0.466667 0.000000
vt 0.583333 0.466667 0.000000
vt 0.666667 0.466667 0.000000
vt 0.750000 0.466667 0.000000
vt 0.833333 0.466667 0.000000
vt 0.916667 0.466667 0.000000
vt 1.000000 0.466667 0.000000
vt 0.083333 0.533333 0.000000
vt 0.000000 0.533333 0.000000
vt 0.166667 0.533333 0.000000
vt 0.250000 0.533333 0.000000
vt 0.333333 0.533333 0.000000
vt 0.416667 0.533333 0.000000
vt 0.500000 0.533333 0.000000
vt 0.583333 0.533333 0.000000
vt 0.666667 0.533333 0.000000
vt 0.750000 0.533333 0.000000
vt 0.833333 0.533333 0.000000
vt 0.916667 0.533333 0.000000
vt 1.000000 0.533333 0.000000
vt 0.083333 0.600000 0.000000
vt 0.000000 0.600000 0.000000
vt 0.166667 0.600000 0.000000
vt 0.250000 0.600000 0.000000
vt 0.333333 0.600000 0.000000
vt 0.416667 0.600000 0.000000
vt 0.500000 0.600000 0.000000
vt 0.583333 0.600000 0.000000
vt 0.666667 0.600000 0.000000
vt 0.750000 0.600000 0.000000
vt 0.833333 0.600000 0.000000
vt 0.916667 0.600000 0.000000
vt 1.000000 0.600000 0.000000
vt 0.083333 0.666667 0.000000
vt 0.000000 0.666667 0.000000
vt 0.166667 0.666667 0.000000
vt 0.250000 0.666667 0.000000
vt 0.333333 0.666667 0.000000
vt 0.416667 0.666667 0.000000
vt 0.500000 0.666667 0.000000
vt 0.583333 0.666667 0.000000
vt 0.666667 0.666667 0.000000
vt 0.750000 0.666667 0.000000
vt 0.833333 0.666667 0.000000
vt 0.916667 0.666667 0.000000
vt 1.000000 0.666667 0.000000
vt 0.083333 0.733333 0.000000
vt 0.000000 0.733333 0.000000
vt 0.166667 0.733333 0.000000
vt 0.250000 0.733333 0.000000
vt 0.333333 0.733333 0.000000
vt 0.416667 0.733333 0.000000
vt 0.500000 0.733333 0.000000
vt 0.583333 0.733333 0.000000
vt 0.666667 0.733333 0.000000
vt 0.750000 0.733333 0.000000
vt 0.833333 0.733333 0.000000
vt 0.916667 0.733333 0.000000
vt 1.000000 0.733333 0.000000
vt 0.083333 0.800000 0.000000
vt 0.000000 0.800000 0.000000
vt 0.166667 0.800000 0.000000
vt 0.250000 0.800000 0.000000
vt 0.333333 0.800000 0.000000
vt 0.416667 0.800000 0.000000
vt 0.500000 0.800000 0.000000
vt 0.583333 0.800000 0.000000
vt 0.666667 0.800000 0.000000
vt 0.750000 0.800000 0.000000
vt 0.833333 0.800000 0.000000
vt 0.916667 0.800000 0.000000
vt 1.000000 0.800000 0.000000
vt 0.083333 0.866667 0.000000
vt 0.000000 0.866667 0.000000
vt 0.166667 0.866667 0.000000
vt 0.250000 0.866667 0.000000
vt 0.333333 0.866667 0.000000
vt 0.416667 0.866667 0.000000
vt 0.500000 0.866667 0.000000
vt 0.583333 0.866667 0.000000
vt 0.666667 0.866667 0.000000
vt 0.750000 0.866667 0.000000
vt 0.833333 0.866667 0.000000
vt 0.916667 0.866667 0.000000
vt 1.000000 0.866667 0.000000
vt 0.083333 0.933333 0.000000
vt 0.000000 0.933333 0.000000
vt 0.166667 0.933333 0.000000
vt 0.250000 0.933333 0.000000
vt 0.333333 0.933333 0.000000
vt 0.416667 0.933333 0.000000
vt 0.500000 0.933333 0.000000
vt 0.583333 0.933333 0.000000
vt 0.666667 0.933333 0.000000
vt 0.750000 0.933333 0.000000
vt 0.833333 0.933333 0.000000
vt 0.916667 0.933333 0.000000
vt 1.000000 0.933333 0.000000
vt 0.083333 1.000000 0.000000
vt 0.000000 1.000000 0.000000
vt 0.166667 1.000000 0.000000
vt 0.250000 1.000000 0.000000
vt 0.333333 1.000000 0.000000
vt 0.416667 1.000000 0.000000
vt 0.500000 1.000000 0.000000
vt 0.583333 1.000000 0.000000
vt 0.666667 1.000000 0.000000
vt 0.750000 1.000000 0.000000
vt 0.833333 1.000000 0.000000
vt 0.916667 1.000000 0.000000
vt 1.000000 1.000000 0.000000
# 208 texture coords

g Tube001
usemtl _TubeMaterial__25
s off
f -179/-208/-37 -167/-207/-37 -168/-206/-37 -180/-205/-37 
f -178/-204/-37 -166/-203/-37 -167/-207/-37 -179/-208/-37 
f -177/-202/-37 -165/-201/-37 -166/-203/-37 -178/-204/-37 
f -176/-200/-37 -164/-199/-37 -165/-201/-37 -177/-202/-37 
f -175/-198/-37 -163/-197/-37 -164/-199/-37 -176/-200/-37 
f -174/-196/-36 -162/-195/-36 -163/-197/-36 -175/-198/-36 
f -173/-194/-35 -161/-193/-35 -162/-195/-35 -174/-196/-35 
f -172/-192/-35 -160/-191/-35 -161/-193/-35 -173/-194/-35 
f -171/-190/-35 -159/-189/-35 -160/-191/-35 -172/-192/-35 
f -170/-188/-35 -158/-187/-35 -159/-189/-35 -171/-190/-35 
f -169/-186/-35 -157/-185/-35 -158/-187/-35 -170/-188/-35 
f -180/-184/-34 -168/-183/-34 -157/-185/-34 -169/-186/-34 
f -167/-207/-33 -155/-182/-33 -156/-181/-33 -168/-206/-33 
f -166/-203/-33 -154/-180/-33 -155/-182/-33 -167/-207/-33 
f -165/-201/-33 -153/-179/-33 -154/-180/-33 -166/-203/-33 
f -164/-199/-33 -152/-178/-33 -153/-179/-33 -165/-201/-33 
f -163/-197/-33 -151/-177/-33 -152/-178/-33 -164/-199/-33 
f -162/-195/-36 -150/-176/-36 -151/-177/-36 -163/-197/-36 
f -161/-193/-32 -149/-175/-32 -150/-176/-32 -162/-195/-32 
f -160/-191/-32 -148/-174/-32 -149/-175/-32 -161/-193/-32 
f -159/-189/-32 -147/-173/-32 -148/-174/-32 -160/-191/-32 
f -158/-187/-32 -146/-172/-32 -147/-173/-32 -159/-189/-32 
f -157/-185/-32 -145/-171/-32 -146/-172/-32 -158/-187/-32 
f -168/-183/-34 -156/-170/-34 -145/-171/-34 -157/-185/-34 
f -155/-182/-31 -143/-169/-31 -144/-168/-31 -156/-181/-31 
f -154/-180/-31 -142/-167/-31 -143/-169/-31 -155/-182/-31 
f -153/-179/-31 -141/-166/-31 -142/-167/-31 -154/-180/-31 
f -152/-178/-31 -140/-165/-31 -141/-166/-31 -153/-179/-31 
f -151/-177/-31 -139/-164/-31 -140/-165/-31 -152/-178/-31 
f -150/-176/-36 -138/-163/-36 -139/-164/-36 -151/-177/-36 
f -149/-175/-30 -137/-162/-30 -138/-163/-30 -150/-176/-30 
f -148/-174/-30 -136/-161/-30 -137/-162/-30 -149/-175/-30 
f -147/-173/-30 -135/-160/-30 -136/-161/-30 -148/-174/-30 
f -146/-172/-30 -134/-159/-30 -135/-160/-30 -147/-173/-30 
f -145/-171/-30 -133/-158/-30 -134/-159/-30 -146/-172/-30 
f -156/-170/-34 -144/-157/-34 -133/-158/-34 -145/-171/-34 
f -143/-169/-29 -131/-156/-29 -132/-155/-29 -144/-168/-29 
f -142/-167/-29 -130/-154/-29 -131/-156/-29 -143/-169/-29 
f -141/-166/-29 -129/-153/-29 -130/-154/-29 -142/-167/-29 
f -140/-165/-29 -128/-152/-29 -129/-153/-29 -141/-166/-29 
f -139/-164/-29 -127/-151/-29 -128/-152/-29 -140/-165/-29 
f -138/-163/-36 -126/-150/-36 -127/-151/-36 -139/-164/-36 
f -137/-162/-28 -125/-149/-28 -126/-150/-28 -138/-163/-28 
f -136/-161/-28 -124/-148/-28 -125/-149/-28 -137/-162/-28 
f -135/-160/-28 -123/-147/-28 -124/-148/-28 -136/-161/-28 
f -134/-159/-28 -122/-146/-28 -123/-147/-28 -135/-160/-28 
f -133/-158/-28 -121/-145/-28 -122/-146/-28 -134/-159/-28 
f -144/-157/-34 -132/-144/-34 -121/-145/-34 -133/-158/-34 
f -131/-156/-27 -119/-143/-27 -120/-142/-27 -132/-155/-27 
f -130/-154/-26 -118/-141/-26 -119/-143/-26 -131/-156/-26 
f -129/-153/-26 -117/-140/-26 -118/-141/-26 -130/-154/-26 
f -128/-152/-27 -116/-139/-27 -117/-140/-27 -129/-153/-27 
f -127/-151/-26 -115/-138/-26 -116/-139/-26 -128/-152/-26 
f -126/-150/-36 -114/-137/-36 -115/-138/-36 -127/-151/-36 
f -125/-149/-25 -113/-136/-25 -114/-137/-25 -126/-150/-25 
f -124/-148/-25 -112/-135/-25 -113/-136/-25 -125/-149/-25 
f -123/-147/-25 -111/-134/-25 -112/-135/-25 -124/-148/-25 
f -122/-146/-25 -110/-133/-25 -111/-134/-25 -123/-147/-25 
f -121/-145/-25 -109/-132/-25 -110/-133/-25 -122/-146/-25 
f -132/-144/-34 -120/-131/-34 -109/-132/-34 -121/-145/-34 
f -119/-143/-24 -107/-130/-24 -108/-129/-24 -120/-142/-24 
f -118/-141/-24 -106/-128/-24 -107/-130/-24 -119/-143/-24 
f -117/-140/-24 -105/-127/-24 -106/-128/-24 -118/-141/-24 
f -116/-139/-24 -104/-126/-24 -105/-127/-24 -117/-140/-24 
f -115/-138/-24 -103/-125/-24 -104/-126/-24 -116/-139/-24 
f -114/-137/-36 -102/-124/-36 -103/-125/-36 -115/-138/-36 
f -113/-136/-23 -101/-123/-23 -102/-124/-23 -114/-137/-23 
f -112/-135/-23 -100/-122/-23 -101/-123/-23 -113/-136/-23 
f -111/-134/-23 -99/-121/-23 -100/-122/-23 -112/-135/-23 
f -110/-133/-23 -98/-120/-23 -99/-121/-23 -111/-134/-23 
f -109/-132/-23 -97/-119/-23 -98/-120/-23 -110/-133/-23 
f -120/-131/-34 -108/-118/-34 -97/-119/-34 -109/-132/-34 
f -107/-130/-22 -95/-117/-22 -96/-116/-22 -108/-129/-22 
f -106/-128/-22 -94/-115/-22 -95/-117/-22 -107/-130/-22 
f -105/-127/-22 -93/-114/-22 -94/-115/-22 -106/-128/-22 
f -104/-126/-22 -92/-113/-22 -93/-114/-22 -105/-127/-22 
f -103/-125/-22 -91/-112/-22 -92/-113/-22 -104/-126/-22 
f -102/-124/-36 -90/-111/-36 -91/-112/-36 -103/-125/-36 
f -101/-123/-21 -89/-110/-21 -90/-111/-21 -102/-124/-21 
f -100/-122/-20 -88/-109/-20 -89/-110/-20 -101/-123/-20 
f -99/-121/-21 -87/-108/-21 -88/-109/-21 -100/-122/-21 
f -98/-120/-20 -86/-107/-20 -87/-108/-20 -99/-121/-20 
f -97/-119/-21 -85/-106/-21 -86/-107/-21 -98/-120/-21 
f -108/-118/-34 -96/-105/-34 -85/-106/-34 -97/-119/-34 
f -95/-117/-19 -83/-104/-19 -84/-103/-19 -96/-116/-19 
f -94/-115/-19 -82/-102/-19 -83/-104/-19 -95/-117/-19 
f -93/-114/-19 -81/-101/-19 -82/-102/-19 -94/-115/-19 
f -92/-113/-19 -80/-100/-19 -81/-101/-19 -93/-114/-19 
f -91/-112/-19 -79/-99/-19 -80/-100/-19 -92/-113/-19 
f -90/-111/-36 -78/-98/-36 -79/-99/-36 -91/-112/-36 
f -89/-110/-18 -77/-97/-18 -78/-98/-18 -90/-111/-18 
f -88/-109/-18 -76/-96/-18 -77/-97/-18 -89/-110/-18 
f -87/-108/-18 -75/-95/-18 -76/-96/-18 -88/-109/-18 
f -86/-107/-18 -74/-94/-18 -75/-95/-18 -87/-108/-18 
f -85/-106/-18 -73/-93/-18 -74/-94/-18 -86/-107/-18 
f -96/-105/-34 -84/-92/-34 -73/-93/-34 -85/-106/-34 
f -83/-104/-17 -71/-91/-17 -72/-90/-17 -84/-103/-17 
f -82/-102/-17 -70/-89/-17 -71/-91/-17 -83/-104/-17 
f -81/-101/-16 -69/-88/-16 -70/-89/-16 -82/-102/-16 
f -80/-100/-16 -68/-87/-16 -69/-88/-16 -81/-101/-16 
f -79/-99/-17 -67/-86/-17 -68/-87/-17 -80/-100/-17 
f -78/-98/-36 -66/-85/-36 -67/-86/-36 -79/-99/-36 
f -77/-97/-15 -65/-84/-15 -66/-85/-15 -78/-98/-15 
f -76/-96/-15 -64/-83/-15 -65/-84/-15 -77/-97/-15 
f -75/-95/-15 -63/-82/-15 -64/-83/-15 -76/-96/-15 
f -74/-94/-15 -62/-81/-15 -63/-82/-15 -75/-95/-15 
f -73/-93/-15 -61/-80/-15 -62/-81/-15 -74/-94/-15 
f -84/-92/-34 -72/-79/-34 -61/-80/-34 -73/-93/-34 
f -71/-91/-14 -59/-78/-14 -60/-77/-14 -72/-90/-14 
f -70/-89/-14 -58/-76/-14 -59/-78/-14 -71/-91/-14 
f -69/-88/-14 -57/-75/-14 -58/-76/-14 -70/-89/-14 
f -68/-87/-14 -56/-74/-14 -57/-75/-14 -69/-88/-14 
f -67/-86/-14 -55/-73/-14 -56/-74/-14 -68/-87/-14 
f -66/-85/-36 -54/-72/-36 -55/-73/-36 -67/-86/-36 
f -65/-84/-13 -53/-71/-13 -54/-72/-13 -66/-85/-13 
f -64/-83/-13 -52/-70/-13 -53/-71/-13 -65/-84/-13 
f -63/-82/-13 -51/-69/-13 -52/-70/-13 -64/-83/-13 
f -62/-81/-13 -50/-68/-13 -51/-69/-13 -63/-82/-13 
f -61/-80/-13 -49/-67/-13 -50/-68/-13 -62/-81/-13 
f -72/-79/-34 -60/-66/-34 -49/-67/-34 -61/-80/-34 
f -59/-78/-12 -47/-65/-12 -48/-64/-12 -60/-77/-12 
f -58/-76/-12 -46/-63/-12 -47/-65/-12 -59/-78/-12 
f -57/-75/-11 -45/-62/-11 -46/-63/-11 -58/-76/-11 
f -56/-74/-12 -44/-61/-12 -45/-62/-12 -57/-75/-12 
f -55/-73/-12 -43/-60/-12 -44/-61/-12 -56/-74/-12 
f -54/-72/-36 -42/-59/-36 -43/-60/-36 -55/-73/-36 
f -53/-71/-10 -41/-58/-10 -42/-59/-10 -54/-72/-10 
f -52/-70/-10 -40/-57/-10 -41/-58/-10 -53/-71/-10 
f -51/-69/-10 -39/-56/-10 -40/-57/-10 -52/-70/-10 
f -50/-68/-10 -38/-55/-10 -39/-56/-10 -51/-69/-10 
f -49/-67/-10 -37/-54/-10 -38/-55/-10 -50/-68/-10 
f -60/-66/-34 -48/-53/-34 -37/-54/-34 -49/-67/-34 
f -47/-65/-9 -35/-52/-9 -36/-51/-9 -48/-64/-9 
f -46/-63/-9 -34/-50/-9 -35/-52/-9 -47/-65/-9 
f -45/-62/-9 -33/-49/-9 -34/-50/-9 -46/-63/-9 
f -44/-61/-9 -32/-48/-9 -33/-49/-9 -45/-62/-9 
f -43/-60/-9 -31/-47/-9 -32/-48/-9 -44/-61/-9 
f -42/-59/-36 -30/-46/-36 -31/-47/-36 -43/-60/-36 
f -41/-58/-8 -29/-45/-8 -30/-46/-8 -42/-59/-8 
f -40/-57/-8 -28/-44/-8 -29/-45/-8 -41/-58/-8 
f -39/-56/-8 -27/-43/-8 -28/-44/-8 -40/-57/-8 
f -38/-55/-8 -26/-42/-8 -27/-43/-8 -39/-56/-8 
f -37/-54/-8 -25/-41/-8 -26/-42/-8 -38/-55/-8 
f -48/-53/-34 -36/-40/-34 -25/-41/-34 -37/-54/-34 
f -35/-52/-7 -23/-39/-7 -24/-38/-7 -36/-51/-7 
f -34/-50/-7 -22/-37/-7 -23/-39/-7 -35/-52/-7 
f -33/-49/-6 -21/-36/-6 -22/-37/-6 -34/-50/-6 
f -32/-48/-7 -20/-35/-7 -21/-36/-7 -33/-49/-7 
f -31/-47/-6 -19/-34/-6 -20/-35/-6 -32/-48/-6 
f -30/-46/-36 -18/-33/-36 -19/-34/-36 -31/-47/-36 
f -29/-45/-5 -17/-32/-5 -18/-33/-5 -30/-46/-5 
f -28/-44/-5 -16/-31/-5 -17/-32/-5 -29/-45/-5 
f -27/-43/-5 -15/-30/-5 -16/-31/-5 -28/-44/-5 
f -26/-42/-5 -14/-29/-5 -15/-30/-5 -27/-43/-5 
f -25/-41/-5 -13/-28/-5 -14/-29/-5 -26/-42/-5 
f -36/-40/-34 -24/-27/-34 -13/-28/-34 -25/-41/-34 
f -23/-39/-4 -11/-26/-4 -12/-25/-4 -24/-38/-4 
f -22/-37/-4 -10/-24/-4 -11/-26/-4 -23/-39/-4 
f -21/-36/-4 -9/-23/-4 -10/-24/-4 -22/-37/-4 
f -20/-35/-4 -8/-22/-4 -9/-23/-4 -21/-36/-4 
f -19/-34/-4 -7/-21/-4 -8/-22/-4 -20/-35/-4 
f -18/-33/-36 -6/-20/-36 -7/-21/-36 -19/-34/-36 
f -17/-32/-3 -5/-19/-3 -6/-20/-3 -18/-33/-3 
f -16/-31/-3 -4/-18/-3 -5/-19/-3 -17/-32/-3 
f -15/-30/-3 -3/-17/-3 -4/-18/-3 -16/-31/-3 
f -14/-29/-3 -2/-16/-3 -3/-17/-3 -15/-30/-3 
f -13/-28/-3 -1/-15/-3 -2/-16/-3 -14/-29/-3 
f -24/-27/-34 -12/-14/-34 -1/-15/-34 -13/-28/-34 
f -11/-26/-2 -179/-13/-2 -180/-12/-2 -12/-25/-2 
f -10/-24/-2 -178/-11/-2 -179/-13/-2 -11/-26/-2 
f -9/-23/-2 -177/-10/-2 -178/-11/-2 -10/-24/-2 
f -8/-22/-2 -176/-9/-2 -177/-10/-2 -9/-23/-2 
f -7/-21/-2 -175/-8/-2 -176/-9/-2 -8/-22/-2 
f -6/-20/-36 -174/-7/-36 -175/-8/-36 -7/-21/-36 
f -5/-19/-1 -173/-6/-1 -174/-7/-1 -6/-20/-1 
f -4/-18/-1 -172/-5/-1 -173/-6/-1 -5/-19/-1 
f -3/-17/-1 -171/-4/-1 -172/-5/-1 -4/-18/-1 
f -2/-16/-1 -170/-3/-1 -171/-4/-1 -3/-17/-1 
f -1/-15/-1 -169/-2/-1 -170/-3/-1 -2/-16/-1 
f -12/-14/-34 -180/-1/-34 -169/-2/-34 -1/-15/-34 
# 180 polygons

